<svg width="694" height="600" viewBox="0 0 694 600" fill="none" xmlns="http://www.w3.org/2000/svg">
<path d="M280.597 420.933C252.694 392.94 216.213 368.438 181.97 344.796C148.551 320.333 138.714 280.952 89.5106 300.094C92.7562 229.477 75.9486 180.06 1.19592 183.91C1.44374 206.079 0.176609 235.753 0.0287183 257.718C-2.22961 428.651 128.929 600 313.645 600C313.645 553.629 327.015 564.673 327.015 546.476C327.015 501.094 325.508 462.965 280.597 420.933ZM301.894 545.671C301.498 553.045 294.567 561.411 294.415 575.606C122.602 560.002 3.6101 378.921 25.0423 208.893C90.9375 222.055 49.9718 314.665 83.9987 367.397C96.0058 389.938 155.05 449.703 190.628 477.872C190.628 477.872 186.563 445.916 161.649 421.73C131.759 392.708 95.6061 352.71 92.0127 325.933C119.073 313.136 122.186 319.004 138.518 336.642C146.037 345.1 155.398 355.624 168.352 364.571C235.155 411.534 301.889 435.468 301.889 545.675L301.894 545.671Z" fill="white"/>
<path d="M366.985 546.472C366.985 564.674 380.355 553.625 380.355 599.996C565.071 599.996 696.23 428.647 693.971 257.714C693.82 235.75 692.557 206.075 692.804 183.907C618.052 180.056 601.248 229.473 604.49 300.09C555.282 280.948 545.449 320.329 512.03 344.792C477.787 368.434 441.306 392.936 413.403 420.929C368.492 462.961 366.985 501.09 366.985 546.472ZM525.644 364.567C538.598 355.62 547.959 345.096 555.478 336.638C571.81 319 574.927 313.132 601.983 325.93C598.39 352.706 562.237 392.708 532.347 421.726C507.433 445.912 503.368 477.868 503.368 477.868C538.946 449.699 597.994 389.934 609.998 367.393C644.024 314.661 603.059 222.051 668.954 208.889C690.386 378.918 571.394 559.998 399.581 575.602C399.429 561.407 392.498 553.041 392.103 545.667C392.103 435.46 458.837 411.526 525.64 364.563L525.644 364.567Z" fill="white"/>
<path d="M541.412 205.03C497.752 280.459 428.092 335.649 347.408 391.015C289.031 361.336 122.774 231.446 132.259 132.219C131.344 44.5373 235.826 -10.216 307.393 37.6521C325.044 48.6044 343.159 71.1133 357.253 94.7191C327.155 128.505 304.379 125.951 304.379 245.781C304.379 245.781 285.394 226.226 285.394 206.023C285.394 152.026 294.647 126.663 326.947 92.0171C262.814 -4.58375 130.36 55.6937 161.785 167.998C190.963 272.269 321.743 305.838 398.622 229.689C435.119 193.538 469.33 156.574 474.925 99.815C470.737 233.748 355.062 307.423 251.611 291.6C286.537 321.27 332.97 354.039 346.576 362.533C473.127 268.506 537.843 200.123 537.843 135.846C537.843 104.883 537.515 73.279 519.86 25.1667C496.577 26.7999 452.678 25.4029 374.823 83.6828L362.589 64.2121C418.199 20.6273 476.428 -0.320538 535.505 0.00370618C564.967 78.4308 574.168 148.536 541.412 205.026V205.03Z" fill="white"/>
</svg>
