<svg width="2422" height="600" viewBox="0 0 2422 600" fill="none" xmlns="http://www.w3.org/2000/svg">
<path fill-rule="evenodd" clip-rule="evenodd" d="M152.475 0C187.155 0 218.847 8.73479 247.548 26.2047C276.847 43.0721 299.867 66.2652 316.609 95.7832C333.95 125.301 342.62 157.53 342.62 192.47C342.62 227.41 333.95 259.638 316.609 289.156C299.867 318.072 276.847 341.265 247.548 358.735C218.847 375.602 187.155 384.036 152.475 384.036H149.784L342.62 600H260.104L67.268 384.036H61.8872V600H0V0H152.475ZM61.8872 322.591H152.475C175.794 322.591 197.32 316.867 217.052 305.421C236.784 293.373 252.331 277.41 263.692 257.53C275.651 237.651 281.63 215.964 281.63 192.47C281.63 168.976 275.651 147.289 263.692 127.409C252.331 106.927 236.784 90.9639 217.052 79.5181C197.32 67.4701 175.794 61.4456 152.475 61.4456H61.8872V322.591Z" fill="white"/>
<path d="M683.488 61.3532H417.7V271.579H596.388V329.323H417.7V538.647H683.488V600H356.64V0H683.488V61.3532Z" fill="white"/>
<path d="M758.567 269.774H1036.92V0H1097.09V600H1036.92V331.128H758.567V600H697.508V0H758.567V269.774Z" fill="white"/>
<path fill-rule="evenodd" clip-rule="evenodd" d="M1112.14 242.172C1176.59 238.86 1191.08 281.358 1188.28 342.087C1230.7 325.625 1239.18 359.493 1268 380.53C1297.52 400.861 1328.97 421.933 1353.03 446.006C1391.75 482.152 1393.05 514.943 1393.05 553.97C1393.05 569.62 1381.52 560.122 1381.52 600C1222.27 600 1109.18 452.643 1111.13 305.645C1111.26 286.756 1112.35 261.236 1112.14 242.172ZM1132.7 263.656C1114.22 409.877 1216.81 565.603 1364.94 579.022C1365.07 566.815 1371.05 559.619 1371.39 553.278L1371.39 553.282C1371.39 458.506 1313.85 437.923 1256.26 397.536C1245.09 389.842 1237.02 380.792 1230.53 373.518C1216.45 358.35 1213.77 353.303 1190.44 364.309C1193.53 387.335 1224.71 421.733 1250.48 446.691C1271.96 467.491 1275.46 494.973 1275.46 494.973C1244.79 470.748 1193.88 419.351 1183.53 399.966C1154.19 354.618 1189.51 274.975 1132.7 263.656Z" fill="white"/>
<path fill-rule="evenodd" clip-rule="evenodd" d="M1890.27 0C1924.91 7.0757e-05 1956.87 8.72179 1986.14 26.1653C2015.41 43.6089 2038.7 67.0675 2056.03 96.5411C2073.35 126.015 2082.01 157.895 2082.01 192.181C2082.01 226.466 2073.35 258.346 2056.03 287.819C2038.7 317.293 2015.41 340.752 1986.14 358.195C1956.87 375.037 1924.91 383.459 1890.27 383.459H1785.44V600H1723.62V0H1890.27ZM1785.44 323.007H1890.27C1913.56 323.007 1935.07 317.293 1954.78 305.865C1975.09 293.834 1990.92 277.895 2002.27 258.045C2014.21 237.594 2020.19 215.639 2020.19 192.181C2020.19 168.722 2014.21 147.067 2002.27 127.218C1990.92 107.368 1975.09 91.7293 1954.78 80.3008C1935.07 68.2709 1913.56 62.2557 1890.27 62.2556H1785.44V323.007Z" fill="white"/>
<path d="M2422 61.3532H2156.92V271.579H2335.13V329.323H2156.92V538.647H2422V600H2096.03V0H2422V61.3532Z" fill="white"/>
<path fill-rule="evenodd" clip-rule="evenodd" d="M1632.28 342.084C1629.49 281.355 1643.98 238.857 1708.43 242.168C1708.21 261.233 1709.3 286.752 1709.43 305.641C1711.38 452.64 1598.3 599.997 1439.04 599.997C1439.04 560.119 1427.51 569.62 1427.51 553.967C1427.51 514.939 1428.81 482.149 1467.53 446.003C1491.59 421.929 1523.04 400.858 1552.57 380.527C1581.38 359.489 1589.86 325.622 1632.28 342.084ZM1687.86 263.653C1631.05 274.972 1666.37 354.614 1637.03 399.963C1626.68 419.347 1575.77 470.744 1545.1 494.969C1545.1 494.954 1548.61 467.482 1570.08 446.688C1595.85 421.733 1627.02 387.332 1630.12 364.305C1606.8 353.299 1604.11 358.347 1590.03 373.514C1583.54 380.788 1575.47 389.839 1564.3 397.533L1564.3 397.529C1506.7 437.917 1449.17 458.499 1449.17 553.275C1449.51 559.616 1455.49 566.811 1455.62 579.018C1603.75 565.599 1706.34 409.873 1687.86 263.653Z" fill="white"/>
<path d="M1572.81 84.0157C1598.21 151.461 1606.14 211.75 1577.9 260.331V260.334C1540.26 325.201 1480.2 372.664 1410.63 420.277C1360.3 394.754 1216.96 283.051 1225.14 197.718C1224.35 122.314 1314.43 75.2274 1376.13 116.393C1391.35 125.812 1406.97 145.169 1419.12 165.47C1393.17 194.524 1373.54 192.328 1373.54 295.379C1373.49 295.33 1357.17 278.537 1357.17 261.188C1357.17 214.752 1365.14 192.94 1392.99 163.146C1337.7 80.0709 1223.5 131.909 1250.59 228.488C1275.75 318.158 1388.51 347.027 1454.79 281.54C1486.26 250.451 1515.75 218.663 1520.58 169.852C1516.96 285.031 1417.23 348.391 1328.04 334.782C1358.15 360.298 1398.19 388.478 1409.92 395.783C1519.03 314.922 1574.82 256.114 1574.82 200.838C1574.82 174.21 1574.54 147.031 1559.32 105.656C1539.24 107.061 1501.39 105.859 1434.27 155.978L1423.72 139.234C1471.67 101.752 1521.87 83.7369 1572.81 84.0157Z" fill="white"/>
<path d="M1410.28 0C1545.36 0.000147095 1666.25 98.3161 1700.09 228.848C1684.49 228.848 1668.35 231.339 1649.81 239.998C1641.67 206.823 1623.08 170.77 1603.02 144.397C1603 144.324 1588.99 85.3206 1581.55 77.0119C1562.73 72.2018 1523.19 79.7477 1523.13 79.7576C1489.32 62.3417 1450.95 52.5077 1410.28 52.5077C1292.77 52.5077 1194.45 134.616 1169.69 244.535C1154.87 233.149 1136.95 230.161 1119.43 230.161C1153.01 99.3234 1274.99 0 1410.28 0Z" fill="white"/>
</svg>
